<svg xmlns="http://www.w3.org/2000/svg" viewBox="0 0 50 50" stroke="white" fill="white"><path d="M 12 4 C 9.2545455 4 7 6.2545455 7 9 C 4.2545455 9 2 11.254545 2 14 L 2 35 C 2 37.745455 4.2545455 40 7 40 L 10.884766 40 C 10.843526 40.975921 10.827266 41.968847 10.578125 42.681641 C 10.236066 43.660266 9.6802408 44.426318 8.4863281 45.142578 A 1.0001 1.0001 0 0 0 9 47 C 12.823788 47 17.309348 45.229491 19.572266 40 L 38 40 C 40.745455 40 43 37.745455 43 35 C 45.745455 35 48 32.745455 48 30 L 48 9 C 48 6.2545455 45.745455 4 43 4 L 12 4 z M 12 6 L 43 6 C 44.654545 6 46 7.3454545 46 9 L 46 30 C 46 31.654545 44.654545 33 43 33 L 43 14 C 43 11.254545 40.745455 9 38 9 L 9 9 C 9 7.3454545 10.345455 6 12 6 z M 7 11 L 38 11 C 39.654545 11 41 12.345455 41 14 L 41 35 C 41 36.654545 39.654545 38 38 38 L 19 38 A 1.0001 1.0001 0 0 0 18.060547 38.65625 C 16.683115 42.413196 14.271763 44.066624 11.714844 44.681641 C 11.999029 44.246253 12.30099 43.816168 12.466797 43.341797 C 12.942988 41.979422 13 40.530333 13 39 A 1.0001 1.0001 0 0 0 12 38 L 7 38 C 5.3454545 38 4 36.654545 4 35 L 4 14 C 4 12.345455 5.3454545 11 7 11 z"></path></svg>