<svg xmlns="http://www.w3.org/2000/svg" viewBox="0 0 50 50">    <path d="M 12 4 C 9.955 4 8.1978281 5.237 7.4238281 7 L 38 7 C 41.86 7 45 10.14 45 14 L 45 34.576172 C 46.763 33.802172 48 32.045 48 30 L 48 9 C 48 6.243 45.757 4 43 4 L 12 4 z M 7 9 C 4.243 9 2 11.243 2 14 L 2 35 C 2 37.757 4.243 40 7 40 L 10.984375 40 C 10.893375 42.518 10.383375 44.002578 8.484375 45.142578 C 8.098375 45.373578 7.9151562 45.834578 8.0351562 46.267578 C 8.1551563 46.700578 8.551 47 9 47 C 11.935 47 17.129641 46.072 19.681641 40 L 38 40 C 40.757 40 43 37.757 43 35 L 43 14 C 43 11.243 40.757 9 38 9 L 7 9 z"></path></svg>